<?xml version="1.0" ?><svg xmlns="http://www.w3.org/2000/svg" xmlns:xlink="http://www.w3.org/1999/xlink" id="Layer_1" style="enable-background:new 0 0 58.119202 80.623993;" version="1.1" viewBox="0 0 58.119202 80.623993" xml:space="preserve"><style type="text/css">
	.st0{opacity:0.5;fill:#231F20;enable-background:new    ;}
	.st1{fill:#FFFFFF;}
	.st2{fill:#22093A;stroke:#22093A;stroke-linecap:round;stroke-linejoin:round;}
	.st3{fill:#FCC707;stroke:#22093A;stroke-linecap:round;stroke-linejoin:round;}
	.st4{fill:none;stroke:#FFFFFF;stroke-linecap:round;stroke-linejoin:round;}
	.st5{fill:none;stroke:#22093A;stroke-linecap:round;stroke-linejoin:round;}
	.st6{fill:#E6E7E8;stroke:#22093A;stroke-linecap:round;stroke-linejoin:round;}
	.st7{fill:#EC6509;stroke:#22093A;stroke-linecap:round;stroke-linejoin:round;}
	.st8{fill:#E9022C;stroke:#22093A;stroke-linecap:round;stroke-linejoin:round;}
</style><g id="Layer_2_00000044877187766781517490000002076949556345178782_"><g id="Layer_1-2"><path class="st0" d="M54.03986,56.072231c-0.6534-0.367928-1.370972-0.60788-2.114262-0.707001    c2.719902-3.957455,4.248363-8.611652,4.404289-13.411129c0.040001-0.834,0.058601-1.662109,0.055672-2.479488    c0.240704-0.237499,0.460888-0.494926,0.658199-0.769539c1.275345-1.764328,1.428638-4.102833,0.394531-6.018551    c-0.496632-0.94656-1.20882-1.763121-2.079102-2.383789c-2.203117-9.461945-7.883789-12.230505-8.659187-12.568394    c-0.138535-0.391134-0.302689-0.772717-0.49139-1.142269c0.077999-0.051519,0.161369-0.094669,0.235531-0.15167    c1.038433-0.796887,1.622166-2.050756,1.56348-3.3584c-0.032589-0.563757-0.154213-1.118802-0.360352-1.64453    c1.488281-2.848639,0.299801-5.54785-0.359379-7.04785c-0.105469-0.23829-0.212891-0.47852-0.316399-0.74512    c-0.649971-1.67737-2.349266-2.705533-4.136719-2.50293c-1.791714,0.190226-3.235924,1.553313-3.529301,3.33105    c-0.036671,0.381796-0.185879,0.744107-0.428711,1.041c-0.257732,0.371584-0.488941,0.760884-0.691898,1.165    c-0.314999-0.33869-0.612671-0.62-0.85791-0.84864c-0.033199-0.03125-0.06543-0.06054-0.097649-0.08984    c0.200283-1.263288-0.217346-2.546005-1.123001-3.44922c-0.93874-0.955523-2.299023-1.367984-3.610352-1.09472    c-1.903828,0.499719-3.537739,1.72216-4.554501,3.40753c-0.477741-0.601507-1.078463-1.094023-1.761951-1.44458    c-1.756695-0.954931-3.876055-0.961539-5.63867-0.01758c-1.726891,1.005721-2.81986,2.824392-2.897459,4.82129    c-0.092482,1.31238,0.282295,2.615164,1.058001,3.67779c-0.354071,0.24115-0.71039,0.51044-1.06653,0.8    c-1.032124-1.671673-2.594531-2.949378-4.43781-3.629149c-2.083189-0.735549-4.368228,0.356929-5.103778,2.440119    c-0.150995,0.427641-0.228169,0.877846-0.228222,1.331362c0.01442,0.667763,0.139828,1.328475,0.37109,1.95508    c0.02149,0.06543,0.04688,0.14258,0.06836,0.21387c-1.273636,1.875789-1.364571,4.314095-0.23419,6.27954    c-1.36211-0.312384-2.791509-0.113691-4.01678,0.55835c-1.726882,1.005722-2.819845,2.824389-2.897443,4.82128    c-0.147505,1.991076,0.782096,3.908775,2.43652,5.026369c0.455969,0.311451,0.95466,0.555193,1.48053,0.723629    c-1.3004,3.498684-1.725853,7.262211-1.23932,10.962902c0.03223,0.251999,0.07227,0.494141,0.11328,0.737301L3.9754,44.0322    l0.01074,0.09766c0.44717,4.482361,2.021066,8.77874,4.5752,12.489258c-2.75879,1.553711-3.98047,5.410149-3.63574,11.516602    c0.32422,5.767578,1.34472,8.858398,3.51953,10.668938c0.485109,0.403702,1.029601,0.730133,1.61426,0.967781    c0.953533,0.559914,2.039731,0.853973,3.1455,0.851562c0.290568-0.000153,0.580844-0.018417,0.86914-0.054688    c1.286737-0.135193,2.468922-0.770294,3.292-1.768547c0.022461,0.009758,0.04394,0.019531,0.066401,0.02832    c1.226124,0.719643,2.65943,1.003891,4.06739,0.806641c1.031836-0.118294,2.001377-0.554436,2.77441-1.248047l0.00293,0.000999    c2.002832,1.143555,4.323887,1.602966,6.61133,1.308594c1.749403-0.236511,3.421206-0.871284,4.886721-1.855469    c0.530132,0.48703,1.145576,0.872055,1.81543,1.13575c0.801586,0.463417,1.699097,0.736084,2.623001,0.796867    c1.663311,0.134521,3.315479-0.36895,4.621101-1.408203c0.58028,0.569733,1.266315,1.020569,2.019531,1.327148    c2.148445,1.253456,4.831486,1.134293,6.860352-0.304688c2.351437-1.692101,3.249332-4.767509,2.177731-7.459    c1.103729-1.719696,1.729351-3.702408,1.8125-5.744141c0.32325-4.09668,0.16114-6.841789-1.625-8.750999    C55.514465,56.828663,54.816135,56.36232,54.03986,56.072231z M44.948059,10.415L44.909,10.4023l-0.00293-0.001L44.948059,10.415z    "/><path class="st1" d="M52.897411,54.963772c-0.653404-0.367928-1.370972-0.60788-2.114262-0.707001    c2.719898-3.957455,4.248367-8.611652,4.404301-13.411129c0.040001-0.834,0.05859-1.662109,0.05566-2.479488    c0.240707-0.237492,0.460892-0.494919,0.658199-0.769531c1.275341-1.764332,1.428638-4.102837,0.394539-6.01856    c-0.496635-0.94656-1.208828-1.763119-2.079109-2.383791c-2.203121-9.46191-7.883781-12.230461-8.65918-12.568359    c-0.138538-0.391134-0.302689-0.772717-0.49139-1.14227c0.077999-0.05151,0.161381-0.09466,0.235538-0.15167    c1.038433-0.796889,1.622158-2.050758,1.563469-3.3584c-0.032585-0.563757-0.154209-1.118803-0.360352-1.64453    c1.488281-2.84863,0.299801-5.54785-0.359371-7.04785c-0.105469-0.23828-0.212898-0.47852-0.31641-0.74512    c-0.649956-1.677385-2.349255-2.705565-4.136715-2.50297c-1.791725,0.190221-3.23595,1.553312-3.529331,3.33106    c-0.036667,0.381797-0.185879,0.744108-0.428711,1.041c-0.257732,0.371584-0.488937,0.760883-0.691891,1.165    c-0.314999-0.33868-0.612671-0.62-0.85791-0.84863c-0.033211-0.03125-0.06543-0.06055-0.09766-0.08985    c0.200283-1.263285-0.217346-2.545998-1.123001-3.44921c-0.938747-0.955516-2.299038-1.367962-3.610365-1.09468    C29.449654,0.587528,27.81576,1.809965,26.799,3.49532c-0.477724-0.601519-1.078426-1.094054-1.7619-1.44464    c-1.756699-0.954931-3.87606-0.961539-5.63868-0.01758c-1.726887,1.005725-2.819855,2.824393-2.897459,4.82129    c-0.092476,1.312382,0.282299,2.615168,1.058001,3.6778c-0.354071,0.24115-0.71039,0.51043-1.06653,0.8    C15.460314,9.660507,13.89791,8.382788,12.05463,7.703c-2.083189-0.735549-4.368228,0.356929-5.103777,2.440119    c-0.150996,0.427644-0.22817,0.877852-0.228222,1.331371c0.014419,0.667764,0.139831,1.328477,0.3711,1.95508    c0.02148,0.06543,0.04687,0.14257,0.06836,0.21386c-1.273644,1.875786-1.364583,4.314095-0.2342,6.27954    c-1.36211-0.312384-2.791509-0.113691-4.01678,0.55835c-1.726907,1.005718-2.819889,2.824398-2.897491,4.82131    c-0.14751,1.991076,0.782092,3.908779,2.43652,5.026371c0.455968,0.311455,0.954659,0.555197,1.48053,0.723631    c-1.300396,3.49868-1.725851,7.262199-1.23932,10.962887c0.03223,0.251999,0.07227,0.494141,0.11328,0.737309l0.02833,0.170898    l0.01074,0.097649c0.447165,4.482365,2.021058,8.778748,4.57519,12.489265c-2.75879,1.553711-3.98047,5.41016-3.63574,11.516598    c0.32422,5.767578,1.34473,8.858398,3.51953,10.668953c0.485108,0.403694,1.0296,0.730125,1.61426,0.967773    c0.953537,0.559914,2.039738,0.853973,3.14551,0.851562c0.290567-0.000153,0.580844-0.018417,0.86914-0.05468    c1.286739-0.135201,2.468923-0.770302,3.292-1.768562c0.022461,0.009773,0.044001,0.019531,0.06641,0.02832    c1.226118,0.719643,2.659424,1.003899,4.067381,0.806641c1.031832-0.118271,2.001375-0.554398,2.77441-1.248001l0.00293,0.000999    c2.002834,1.143547,4.323885,1.602959,6.61133,1.308601c1.749401-0.236511,3.421206-0.871284,4.886721-1.855469    c0.530136,0.486984,1.145576,0.871979,1.815418,1.135628c0.801598,0.463432,1.699127,0.736099,2.623051,0.796867    c1.663307,0.134521,3.315472-0.36895,4.62109-1.408203c0.58028,0.569733,1.266315,1.020569,2.019531,1.327148    c2.148445,1.253464,4.831486,1.1343,6.860352-0.304688c2.351448-1.692085,3.249355-4.767509,2.177742-7.459    c1.103725-1.719696,1.729347-3.702408,1.8125-5.744141c0.323238-4.09668,0.161129-6.841801-1.625-8.750999    C54.372036,55.720142,53.673691,55.25383,52.897411,54.963772z M43.805611,9.30654l-0.039059-0.0127l-0.00293-0.001    L43.805611,9.30654z"/><path class="st2" d="M11.66112,27.194481c-3.785212,4.148357-5.559274,9.748848-4.8529,15.32    c1.05664,8.368599,5.09232,16.464272,18.27128,18.415001c10.543341,1.560459,25.337679-4.30426,26.108709-20.281483    c0.771919-15.99572-7.23138-20.35977-7.23138-20.35977s0.627899,6.24015-1.37035,5.383749s1.052769-4.335659-1.230942-7.903999    c-0.906742-1.553621-2.124786-2.903082-3.577709-3.96371c0,0-1.037899,7.163001-2.898899,5.302001    c-1.09428-1.09428,1.2272-3.55841,0.83075-6.63095c-0.57093-4.42471-4.35457-4.58589-3.577709-8.4702    c-1.42732,0.28547-3.71125,4.400371-2.58144,7.77429c0.95734,2.85886-3.425859,1.7603-5.37653,4.377061    c-1.882759,2.52565-0.32856,4.773819-1.665211,5.138371c-1.046711,0.28546-2.198-4.57494-1.34156-8.2384    c-2.473999,1.09428-6.50873,5.859521-6.31842,11.23578c0.09931,2.805309,0.43427,6.695-1.60768,5.68939    C12.47137,29.602551,11.66112,27.194481,11.66112,27.194481z"/><path class="st3" d="M11.509,26.18786c-3.785197,4.148342-5.559257,9.748808-4.8529,15.319941    c1.05664,8.36861,5.09232,16.464279,18.27128,18.414951c10.543331,1.56057,25.337681-4.304161,26.108707-20.281361    c0.771919-15.99571-7.079262-19.35314-7.079262-19.35314s0.47578,5.233521-1.522469,4.377131s1.052769-4.335659-1.230949-7.903999    c-1.865002-2.91407-3.425579-2.95709-3.425579-2.95709s-1.189999,6.15637-3.050999,4.29537    c-1.094292-1.09428,1.2272-3.55841,0.830742-6.631001C34.986622,7.044,31.35511,7.88947,32.132,4.00516    c-1.42732,0.28547-3.86338,3.39375-2.733561,6.76767c0.95734,2.85886-3.425859,1.76029-5.376539,4.37706    c-1.88275,2.525651-0.32855,4.77382-1.665211,5.13836c-1.0467,0.285469-2.04583-3.56831-1.18943-7.23177    c-2.473999,1.09428-6.660851,4.8529-6.47054,10.229149c0.0993,2.805321,0.43427,6.695-1.60768,5.68939    C12.31925,28.595921,11.509,26.18786,11.509,26.18786z"/><path class="st4" d="M33.402069,11.67739c0.154305,0.841609,0.021172,1.710658-0.377998,2.46748    c-1.059521,2.097461-1.372789,2.965909-0.868771,3.92121"/><path class="st4" d="M32.155319,8.72431c0.203091,0.38465,0.418999,0.77488,0.615711,1.17462"/><path class="st4" d="M9.146,34.58543c-0.424956,1.65567-0.540122,3.375645-0.33969,5.073189"/><path class="st4" d="M10.57328,30.742161c-0.197,0.38159-0.39733,0.81072-0.59006,1.278381"/><path class="st4" d="M19.27022,16.672859c-0.68355,1.670879,0.58675,4.329109,1.101259,4.86076"/><path class="st4" d="M39.565769,17.59037c0.575787,0.760073,0.843967,1.709225,0.75108,2.65823"/><path class="st5" d="M47.88916,43.93116c-0.933826,3.643173-3.012894,6.890182-5.931,9.262821"/><path class="st5" d="M48.550571,40.716999c-0.05307,0.383228-0.12225,0.844929-0.221588,1.365372"/><path class="st3" d="M10.719,11.46873c0,0,3.12963,1.11466,2.94506,4.29423c-0.152,2.618839-1.1061,1.49795-1.816319,4.892519    c-0.70738-2.06555-2.50892-3.113279-1.30022-4.89187C11.92209,13.74093,10.719,12.19755,10.719,11.46873z"/><path class="st2" d="M43.736649,42.365002c0.830151-10.783539-5.4771-15.500229-13.003529-16.177    c-5.99926-0.53944-13.62426,2.24715-15.27976,10.046751c-1.27322,5.998569-0.834249,9.533772,3.37117,11.56469    c0,0-1.4592,4.588001,1.208679,4.69146c1.894541,0.073471,2.783581-2.424561,2.783581-2.424561s0.0979,2.543999,1.655901,2.608639    s2.434299-2.903198,2.434299-2.903198s0.148911,3.147999,2.169899,3.2318s2.495899-2.288601,2.495899-2.288601    s0.18763,2.364159,1.896919,2.470718c1.718208,0.107151,2.747189-0.814339,2.870522-3.37476    c0.09267-1.92408,2.35574-2.120998,4.783718-2.800732C43.39114,46.375519,43.649681,43.49437,43.736649,42.365002z"/><path class="st6" d="M22.447001,49.488998c0,0-0.889,2.498001-2.783569,2.42458    c-2.6679-0.103451-1.208691-4.69149-1.208691-4.69149c-4.20542-2.030899-4.6444-5.566101-3.37117-11.564678    c1.65551-7.799601,9.28051-10.586189,15.279779-10.04674c7.526409,0.67675,13.83366,5.393431,13.003502,16.177    c-0.087002,1.129398-0.345482,4.01054-2.612679,4.645241c-2.428001,0.67971-4.691051,0.87664-4.78373,2.800709    c-0.123302,2.560379-1.152294,3.481911-2.870445,3.374779c-1.709311-0.106571-1.896919-2.470741-1.896919-2.470741    s-0.47492,2.37241-2.495899,2.288609s-2.16992-3.231812-2.16992-3.231812s-0.87628,2.9678-2.43429,2.903198    S22.447001,49.488998,22.447001,49.488998z"/><path class="st2" d="M23.32513,46.138741c-1.13658-0.421291-0.13208-4.606152,1.731501-4.528881s2.08589,4.398708,0.92783,4.63913    c-0.42717,0.088692-0.8624-1.229389-1.217001-1.25069C24.38446,44.9753,23.756149,46.2985,23.32513,46.138741z"/><ellipse class="st2" cx="32.179356" cy="40.971886" rx="4.851421" ry="3.50668" transform="matrix(0.041425 -0.999142 0.999142 0.041425 -10.090382 71.426376)"/><ellipse class="st2" cx="19.801502" cy="40.398026" rx="3.727751" ry="2.694469" transform="matrix(0.041425 -0.999142 0.999142 0.041425 -21.382114 58.509064)"/><path class="st4" d="M19.17337,31.868851c1.634317-2.585266,4.463356-4.170702,7.521561-4.215191"/><path class="st4" d="M19.97084,47.780251c-0.34178,1.177212-0.321239,1.784809,0,2.240501"/><path class="st4" d="M28.10577,49.754929c0,0.68354,0.24807,1.177219,0.68948,1.177219"/><path class="st4" d="M32.69236,49.754929c0.113918,0.68354,0.417721,1.367088,0.873409,1.367088"/><path class="st4" d="M28.10577,36.16c2.27013-3.835442,6.295452-1.95039,7.092918-0.911388"/><path class="st4" d="M17.768311,35.51442c0.693512-0.593296,1.597479-0.88092,2.506321-0.797459"/><path class="st3" d="M42.86528,12.15185c-1.484081-0.47104-2.506817-1.830564-2.548-3.38706    c0.030239-2.135,1.332611-1.97384,1.78912-4.75963c0.648899,1.65448,1.664719,3.15853,0.745232,4.648    C41.805908,10.347,42.839298,11.55918,42.86528,12.15185z"/><path class="st7" d="M48.988152,33.10564c-0.684921,0.872776-0.532635,2.135544,0.340141,2.820465    c0.233376,0.183144,0.504421,0.312328,0.793659,0.378265c1.5588,0.257,3.516232-1.211411,2.64188-2.84734    c-0.404041-1.08926-1.614601-1.644737-2.703857-1.240696C49.612087,32.382469,49.234085,32.696102,48.988152,33.10564z"/><path class="st7" d="M4.00092,25.569321c-0.055621,0.907801,0.635207,1.688807,1.543007,1.744429    c0.24275,0.014874,0.485782-0.024206,0.711633-0.114429c1.17134-0.552589,1.80806-2.45487,0.45629-3.15136    c-0.779878-0.546703-1.855284-0.357679-2.401989,0.422197C4.085061,24.790836,3.976106,25.178482,4.00092,25.569321z"/><path class="st3" d="M20.48839,7.121c-0.055607,0.907807,0.635239,1.688807,1.543045,1.744414    C22.274162,8.880281,22.517168,8.841208,22.743,8.751c1.171329-0.55258,1.808001-2.45487,0.45628-3.15136    c-0.779894-0.546681-1.855295-0.357624-2.401976,0.42227C20.572529,6.342573,20.463585,6.730189,20.48839,7.121z"/><path class="st2" d="M50.363361,58.550049c-1.314999,0.015659-2.91988,0.712799-3.563129,6.275688    c-0.57431,4.966728,1.376518,5.153,1.88026,5.147003s3.462582,0.213203,3.89061-5.215698S52.311691,58.52684,50.363361,58.550049z    "/><circle class="st2" cx="48.887871" cy="73.155212" r="2.304991"/><path class="st2" d="M27.69808,57.174259c4.37858-0.26836,8.145674,3.063633,8.414034,7.442211    c0.011219,0.183067,0.016094,0.366463,0.014618,0.549866c0.231071,5.909447-3.492569,8.988632-6.922291,9.45443    c-3.094549,0.42028-7.45183-1.500771-7.91419-7.780418C20.911461,61.695671,23.097,57.832191,27.69808,57.174259z"/><path class="st2" d="M28.6129,61.687672c0.43383-0.26329,1.18026,0.82077,1.29434,3.557827    c0.11408,2.737061-0.366449,4.231369-0.84178,4.508217c-0.428881,0.249802-1.067459-0.564079-1.219139-3.468773    C27.72205,63.905251,27.975691,62.074402,28.6129,61.687672z"/><path class="st2" d="M41.129341,57.850681c-6.29945-0.287231-8.294079,1.255692-7.857182,3.30666    c0.65654,3.082001,4.66552,2.70557,4.66552,2.70557s-2.826881,10.52216,1.385448,10.804996    c5.25174,0.352638,2.9021-10.989632,2.9021-10.989632s6.119701,0.493301,5.96965-2.083099    C48.06879,59.43029,45.35117,58.04319,41.129341,57.850681z"/><path class="st2" d="M18.629829,58.178001c-1.84407,0.105999-2.80526,2.216309-2.713,6.788788    c-0.53145-0.001358-1.10208,0.027527-1.698359,0.073441c-0.1629-3.974689-0.92429-6.049171-3.01629-5.92881    c-2.00908,0.115501-2.97392,2.601131-2.665999,8.067909c0.30795,5.466721,1.256001,8.640617,3.88816,8.307137    c1.28839-0.163208,1.67931-2.410271,1.78988-5.410919c0.29484-0.025642,0.60149-0.061783,0.93108-0.118347    c0.4184-0.071854,0.79929-0.156578,1.1584-0.249542c0.510349,3.300797,1.536499,5.100258,3.54829,4.84539    c1.73065-0.219238,1.842791-4.19558,1.82987-8.712143C21.66736,60.737782,21.00787,58.04118,18.629829,58.178001z"/><path class="st8" d="M49.599171,58.16758c-1.314999,0.015671-2.91988,0.712799-3.563129,6.275703    c-0.57431,4.966728,1.376518,5.153,1.88026,5.147003s3.462582,0.213203,3.89061-5.215698S51.547501,58.144371,49.599171,58.16758z    "/><circle class="st8" cx="48.12368" cy="72.772743" r="2.304991"/><path class="st8" d="M26.933889,56.791801c4.378582-0.26836,8.145674,3.063633,8.414034,7.442215    c0.011219,0.18306,0.016094,0.366455,0.014618,0.549858c0.231071,5.909447-3.492569,8.98864-6.922291,9.454437    c-3.094549,0.42028-7.45183-1.500771-7.91419-7.780418C20.14727,61.313202,22.33284,57.44973,26.933889,56.791801z"/><path class="st2" d="M27.848709,61.30521c0.43383-0.263302,1.18026,0.820759,1.29434,3.557827    s-0.366449,4.231369-0.84178,4.508217c-0.428881,0.249786-1.067471-0.564087-1.219139-3.468773    C26.957861,63.522781,27.2115,61.691929,27.848709,61.30521z"/><path class="st8" d="M40.36515,57.46822c-6.29945-0.287239-8.294079,1.255692-7.857182,3.306648    c0.65654,3.082001,4.66552,2.70557,4.66552,2.70557s-2.826881,10.522171,1.385448,10.805    c5.25174,0.352654,2.9021-10.98962,2.9021-10.98962s6.119701,0.49329,5.96965-2.083111    C47.3046,59.047821,44.587002,57.660721,40.36515,57.46822z"/><path class="st8" d="M17.865641,57.795509c-1.84407,0.105999-2.80526,2.216309-2.713,6.788788    c-0.53145-0.00135-1.10208,0.027527-1.698359,0.073448c-0.1629-3.974689-0.92429-6.049171-3.01629-5.92881    c-2.00908,0.115501-2.97392,2.60112-2.666,8.067902c0.30795,5.466728,1.256,8.640617,3.88816,8.307137    c1.28839-0.163208,1.67931-2.410263,1.78988-5.410912c0.29484-0.02565,0.60149-0.061783,0.93108-0.118362    c0.4184-0.071838,0.79929-0.156578,1.1584-0.249542c0.510349,3.300797,1.536501,5.100258,3.54829,4.84539    c1.73065-0.219238,1.842791-4.19558,1.82987-8.712128C20.90317,60.35532,20.243679,57.658718,17.865641,57.795509z"/><path class="st4" d="M10.42483,60.353588c-0.86147,0.362728-1.54159,2.689659-1.17886,6.10564"/><path class="st4" d="M16.72723,61.649361c-0.13732,1.072605-0.13732,2.158337,0,3.230942"/><path class="st4" d="M22.66691,67.290756c-0.226709,2.123001,1.589001,4.803558,5.26149,5.13855"/><path class="st4" d="M22.84827,61.266899c0.418818-0.871445,1.081501-1.602638,1.907669-2.1049"/><path class="st4" d="M47.808331,71.91555c-0.518223,0.276894-0.713856,0.921463-0.436962,1.43969    c0.018757,0.035095,0.039463,0.069122,0.062031,0.101898"/><path class="st4" d="M50.40387,62.757481c-0.042091,1.736622-0.263142,3.532139-0.709499,4.084209"/><path class="st4" d="M50.279579,59.854839c0.063015,0.468567,0.101715,0.940083,0.11594,1.412651"/><path class="st4" d="M37.992168,66.84169c-0.453411,2.748672-0.47752,4.469101,0.66806,5.587616"/></g></g></svg>